<?xml version="1.0" encoding="UTF-8"?>
<svg xmlns="http://www.w3.org/2000/svg" xmlns:xlink="http://www.w3.org/1999/xlink" width="40px" height="40px" viewBox="0 0 40 40" version="1.1">
<g id="surface1">
<path style=" stroke:none;fill-rule:nonzero;fill:rgb(48.627451%,89.019608%,54.509804%);fill-opacity:1;" d="M 7.640625 29.621094 L 13.816406 12.183594 L 18.597656 12.183594 L 17.488281 15.378906 L 19.933594 15.378906 L 22.636719 7.644531 L 12.316406 7.644531 C 11.105469 7.644531 10.277344 8.292969 9.824219 9.585938 C 9.269531 11.191406 8.734375 12.734375 8.21875 14.210938 C 8.214844 14.21875 8.214844 14.230469 8.210938 14.238281 L 7.488281 16.316406 C 7.488281 16.316406 7.484375 16.324219 7.484375 16.328125 C 7.421875 16.492188 7.351562 16.703125 7.28125 16.917969 C 7.265625 16.957031 7.25 17 7.234375 17.042969 C 7.226562 17.0625 7.21875 17.085938 7.210938 17.109375 C 7.203125 17.136719 7.191406 17.160156 7.183594 17.1875 C 7.183594 17.191406 7.183594 17.191406 7.179688 17.195312 C 7.171875 17.21875 7.164062 17.246094 7.152344 17.265625 C 7.148438 17.277344 7.148438 17.285156 7.144531 17.296875 C 7.085938 17.449219 7.03125 17.582031 6.984375 17.671875 C 6.828125 17.949219 6.632812 18.179688 6.394531 18.34375 C 6.390625 18.34375 6.390625 18.347656 6.386719 18.351562 C 6.144531 18.515625 5.847656 18.628906 5.496094 18.675781 C 5.148438 18.726562 4.710938 18.714844 4.191406 18.628906 L 3.40625 20.847656 C 4.21875 20.980469 4.746094 21.195312 4.996094 21.492188 C 5.078125 21.589844 5.140625 21.691406 5.183594 21.808594 C 5.285156 22.054688 5.308594 22.355469 5.25 22.699219 C 5.246094 22.742188 5.234375 22.789062 5.226562 22.832031 C 4.25 25.644531 3.398438 28.109375 2.667969 30.230469 C 2.492188 30.710938 2.40625 31.152344 2.40625 31.5625 C 2.40625 32.332031 2.695312 32.929688 3.277344 33.351562 C 3.816406 33.757812 4.527344 33.960938 5.417969 33.960938 L 13.425781 33.960938 L 14.867188 29.859375 L 14.863281 29.859375 L 14.949219 29.617188 L 7.640625 29.617188 Z M 7.640625 29.621094 "/>
<path style=" stroke:none;fill-rule:nonzero;fill:rgb(48.627451%,89.019608%,54.509804%);fill-opacity:1;" d="M 18.683594 18.964844 L 16.125 18.964844 L 15.0625 21.75 L 14.859375 22.292969 L 23.613281 22.292969 L 23.617188 22.28125 L 24.714844 19.292969 L 24.832031 18.964844 Z M 18.683594 18.964844 "/>
<path style=" stroke:none;fill-rule:nonzero;fill:rgb(48.627451%,89.019608%,54.509804%);fill-opacity:1;" d="M 35.179688 17.597656 C 35.984375 15.269531 36.703125 13.195312 37.332031 11.375 C 37.507812 10.894531 37.59375 10.453125 37.59375 10.046875 C 37.59375 9.273438 37.304688 8.671875 36.722656 8.234375 C 36.183594 7.839844 35.46875 7.644531 34.582031 7.644531 L 26.574219 7.644531 L 25.132812 11.746094 L 25.136719 11.746094 L 24.984375 12.183594 L 32.082031 12.183594 L 25.882812 29.621094 L 21.125 29.621094 L 22.515625 25.714844 L 20.25 25.714844 L 17.359375 33.964844 L 27.683594 33.964844 C 28.890625 33.964844 29.722656 33.316406 30.171875 32.019531 C 31.328125 28.703125 32.382812 25.65625 33.347656 22.882812 C 33.375 22.8125 33.402344 22.75 33.429688 22.699219 C 33.582031 22.417969 33.78125 22.191406 34.019531 22.027344 C 34.023438 22.027344 34.023438 22.023438 34.027344 22.019531 C 34.269531 21.855469 34.570312 21.742188 34.917969 21.695312 C 35.269531 21.644531 35.703125 21.65625 36.222656 21.742188 L 37.011719 19.523438 C 36.195312 19.390625 35.667969 19.175781 35.417969 18.878906 C 35.335938 18.78125 35.273438 18.679688 35.230469 18.5625 C 35.128906 18.316406 35.109375 18.015625 35.164062 17.671875 C 35.167969 17.648438 35.175781 17.625 35.179688 17.597656 Z M 35.179688 17.597656 "/>
</g>
</svg>
